<svg width="1000" height="850" xmlns="http://www.w3.org/2000/svg">
  <!-- Background -->
  <rect width="1000" height="850" fill="#f5f5f5"/>
  
  <!-- User Computer -->
  <rect x="50" y="250" width="120" height="80" rx="10" fill="#e6f7ff" stroke="#1890ff" stroke-width="2"/>
  <text x="110" y="290" font-family="Arial" font-size="14" text-anchor="middle" fill="#000">User</text>
  <text x="110" y="310" font-family="Arial" font-size="14" text-anchor="middle" fill="#000">Computer</text>
  
  <!-- Internet Cloud -->
  <ellipse cx="250" cy="290" rx="60" ry="40" fill="#f0f0f0" stroke="#d9d9d9" stroke-width="2"/>
  <text x="250" y="295" font-family="Arial" font-size="16" text-anchor="middle" fill="#000">Internet</text>
  
  <!-- SSL Certificate -->
  <rect x="250" y="180" width="140" height="60" rx="5" fill="#e6fffb" stroke="#13c2c2" stroke-width="2"/>
  <text x="320" y="210" font-family="Arial" font-size="14" text-anchor="middle" fill="#000">SSL Certificate</text>
  <text x="320" y="230" font-family="Arial" font-size="12" text-anchor="middle" fill="#000">www.foobar.com</text>
  
  <!-- Firewall 1 -->
  <rect x="330" y="270" width="80" height="40" rx="5" fill="#fff2e8" stroke="#fa541c" stroke-width="2"/>
  <text x="370" y="295" font-family="Arial" font-size="14" text-anchor="middle" fill="#000">Firewall</text>
  
  <!-- HAProxy Cluster Box -->
  <rect x="430" y="220" width="200" height="140" rx="10" fill="#fffbe6" stroke="#faad14" stroke-width="2"/>
  <text x="530" y="240" font-family="Arial" font-size="16" font-weight="bold" text-anchor="middle" fill="#000">HAproxy Cluster</text>
  
  <!-- Load Balancer 1 -->
  <rect x="450" y="260" width="160" height="40" rx="5" fill="#fff7e6" stroke="#fa8c16" stroke-width="2"/>
  <text x="530" y="285" font-family="Arial" font-size="14" text-anchor="middle" fill="#000">HAproxy 1</text>
  
  <!-- Load Balancer 2 -->
  <rect x="450" y="310" width="160" height="40" rx="5" fill="#fff7e6" stroke="#fa8c16" stroke-width="2"/>
  <text x="530" y="335" font-family="Arial" font-size="14" text-anchor="middle" fill="#000">HAproxy 2</text>
  
  <!-- Heartbeat Arrow -->
  <line x1="490" y1="300" x2="570" y2="300" stroke="#fa8c16" stroke-width="2" stroke-dasharray="5,3"/>
  <polygon points="570,300 560,295 560,305" fill="#fa8c16"/>
  <text x="530" y="320" font-family="Arial" font-size="10" text-anchor="middle" fill="#fa8c16">Heartbeat</text>
  
  <!-- Monitoring Service Cloud -->
  <ellipse cx="850" cy="150" rx="120" ry="60" fill="#f9f0ff" stroke="#722ed1" stroke-width="2"/>
  <text x="850" y="140" font-family="Arial" font-size="16" text-anchor="middle" fill="#000">Monitoring Service</text>
  <text x="850" y="160" font-family="Arial" font-size="14" text-anchor="middle" fill="#000">(Sumologic or similar)</text>
  
  <!-- Web Server Section -->
  <rect x="150" y="400" width="300" height="200" rx="10" fill="#e6fffb" stroke="#13c2c2" stroke-width="2"/>
  <text x="300" y="425" font-family="Arial" font-size="16" font-weight="bold" text-anchor="middle" fill="#000">Web Server Layer</text>
  
  <!-- Web Server 1 -->
  <rect x="170" y="440" width="120" height="140" rx="5" fill="#e6fffb" stroke="#13c2c2" stroke-width="2"/>
  <text x="230" y="460" font-family="Arial" font-size="14" text-anchor="middle" font-weight="bold" fill="#000">Server 1</text>
  
  <!-- Firewall Web 1 -->
  <rect x="180" y="475" width="100" height="25" rx="5" fill="#fff2e8" stroke="#fa541c" stroke-width="2"/>
  <text x="230" y="492" font-family="Arial" font-size="12" text-anchor="middle" fill="#000">Firewall</text>
  
  <!-- Nginx 1 -->
  <rect x="180" y="505" width="100" height="35" rx="5" fill="#e6fffb" stroke="#13c2c2" stroke-width="2"/>
  <text x="230" y="527" font-family="Arial" font-size="12" text-anchor="middle" fill="#000">Nginx</text>
  
  <!-- Monitoring Client Web 1 -->
  <rect x="180" y="545" width="100" height="25" rx="5" fill="#f6ffed" stroke="#52c41a" stroke-width="2"/>
  <text x="230" y="562" font-family="Arial" font-size="12" text-anchor="middle" fill="#000">Monitoring</text>
  
  <!-- Web Server 2 -->
  <rect x="310" y="440" width="120" height="140" rx="5" fill="#e6fffb" stroke="#13c2c2" stroke-width="2"/>
  <text x="370" y="460" font-family="Arial" font-size="14" text-anchor="middle" font-weight="bold" fill="#000">Server 2</text>
  
  <!-- Firewall Web 2 -->
  <rect x="320" y="475" width="100" height="25" rx="5" fill="#fff2e8" stroke="#fa541c" stroke-width="2"/>
  <text x="370" y="492" font-family="Arial" font-size="12" text-anchor="middle" fill="#000">Firewall</text>
  
  <!-- Nginx 2 -->
  <rect x="320" y="505" width="100" height="35" rx="5" fill="#e6fffb" stroke="#13c2c2" stroke-width="2"/>
  <text x="370" y="527" font-family="Arial" font-size="12" text-anchor="middle" fill="#000">Nginx</text>
  
  <!-- Monitoring Client Web 2 -->
  <rect x="320" y="545" width="100" height="25" rx="5" fill="#f6ffed" stroke="#52c41a" stroke-width="2"/>
  <text x="370" y="562" font-family="Arial" font-size="12" text-anchor="middle" fill="#000">Monitoring</text>
  
  <!-- Application Server Section -->
  <rect x="500" y="400" width="300" height="200" rx="10" fill="#f6ffed" stroke="#52c41a" stroke-width="2"/>
  <text x="650" y="425" font-family="Arial" font-size="16" font-weight="bold" text-anchor="middle" fill="#000">Application Server Layer</text>
  
  <!-- App Server 1 -->
  <rect x="520" y="440" width="120" height="140" rx="5" fill="#f6ffed" stroke="#52c41a" stroke-width="2"/>
  <text x="580" y="460" font-family="Arial" font-size="14" text-anchor="middle" font-weight="bold" fill="#000">Server 3</text>
  
  <!-- Firewall App 1 -->
  <rect x="530" y="475" width="100" height="25" rx="5" fill="#fff2e8" stroke="#fa541c" stroke-width="2"/>
  <text x="580" y="492" font-family="Arial" font-size="12" text-anchor="middle" fill="#000">Firewall</text>
  
  <!-- App Server Instance 1 -->
  <rect x="530" y="505" width="100" height="35" rx="5" fill="#f6ffed" stroke="#52c41a" stroke-width="2"/>
  <text x="580" y="527" font-family="Arial" font-size="12" text-anchor="middle" fill="#000">App Server</text>
  
  <!-- Code Base 1 -->
  <rect x="530" y="545" width="100" height="25" rx="5" fill="#fff7e6" stroke="#fa8c16" stroke-width="2"/>
  <text x="580" y="562" font-family="Arial" font-size="12" text-anchor="middle" fill="#000">Code Base</text>
  
  <!-- App Server 2 -->
  <rect x="660" y="440" width="120" height="140" rx="5" fill="#f6ffed" stroke="#52c41a" stroke-width="2"/>
  <text x="720" y="460" font-family="Arial" font-size="14" text-anchor="middle" font-weight="bold" fill="#000">Server 4</text>
  
  <!-- Firewall App 2 -->
  <rect x="670" y="475" width="100" height="25" rx="5" fill="#fff2e8" stroke="#fa541c" stroke-width="2"/>
  <text x="720" y="492" font-family="Arial" font-size="12" text-anchor="middle" fill="#000">Firewall</text>
  
  <!-- App Server Instance 2 -->
  <rect x="670" y="505" width="100" height="35" rx="5" fill="#f6ffed" stroke="#52c41a" stroke-width="2"/>
  <text x="720" y="527" font-family="Arial" font-size="12" text-anchor="middle" fill="#000">App Server</text>
  
  <!-- Code Base 2 -->
  <rect x="670" y="545" width="100" height="25" rx="5" fill="#fff7e6" stroke="#fa8c16" stroke-width="2"/>
  <text x="720" y="562" font-family="Arial" font-size="12" text-anchor="middle" fill="#000">Code Base</text>
  
  <!-- Database Server Section -->
  <rect x="150" y="630" width="650" height="200" rx="10" fill="#f9f0ff" stroke="#722ed1" stroke-width="2"/>
  <text x="475" y="655" font-family="Arial" font-size="16" font-weight="bold" text-anchor="middle" fill="#000">Database Layer</text>
  
  <!-- DB Server 1 -->
  <rect x="170" y="670" width="180" height="140" rx="5" fill="#f9f0ff" stroke="#722ed1" stroke-width="2"/>
  <text x="260" y="690" font-family="Arial" font-size="14" text-anchor="middle" font-weight="bold" fill="#000">Server 5</text>
  
  <!-- Firewall DB 1 -->
  <rect x="180" y="705" width="160" height="25" rx="5" fill="#fff2e8" stroke="#fa541c" stroke-width="2"/>
  <text x="260" y="722" font-family="Arial" font-size="12" text-anchor="middle" fill="#000">Firewall</text>
  
  <!-- MySQL Primary -->
  <rect x="180" y="735" width="160" height="35" rx="5" fill="#f9f0ff" stroke="#722ed1" stroke-width="2"/>
  <text x="260" y="757" font-family="Arial" font-size="12" text-anchor="middle" fill="#000">MySQL (Primary)</text>
  
  <!-- Monitoring Client DB 1 -->
  <rect x="180" y="775" width="160" height="25" rx="5" fill="#f6ffed" stroke="#52c41a" stroke-width="2"/>
  <text x="260" y="792" font-family="Arial" font-size="12" text-anchor="middle" fill="#000">Monitoring</text>
  
  <!-- DB Server 2 -->
  <rect x="380" y="670" width="180" height="140" rx="5" fill="#f9f0ff" stroke="#722ed1" stroke-width="2"/>
  <text x="470" y="690" font-family="Arial" font-size="14" text-anchor="middle" font-weight="bold" fill="#000">Server 6</text>
  
  <!-- Firewall DB 2 -->
  <rect x="390" y="705" width="160" height="25" rx="5" fill="#fff2e8" stroke="#fa541c" stroke-width="2"/>
  <text x="470" y="722" font-family="Arial" font-size="12" text-anchor="middle" fill="#000">Firewall</text>
  
  <!-- MySQL Replica 1 -->
  <rect x="390" y="735" width="160" height="35" rx="5" fill="#f9f0ff" stroke="#722ed1" stroke-width="2"/>
  <text x="470" y="757" font-family="Arial" font-size="12" text-anchor="middle" fill="#000">MySQL (Replica)</text>
  
  <!-- Monitoring Client DB 2 -->
  <rect x="390" y="775" width="160" height="25" rx="5" fill="#f6ffed" stroke="#52c41a" stroke-width="2"/>
  <text x="470" y="792" font-family="Arial" font-size="12" text-anchor="middle" fill="#000">Monitoring</text>
  
  <!-- DB Server 3 (New) -->
  <rect x="590" y="670" width="180" height="140" rx="5" fill="#f9f0ff" stroke="#722ed1" stroke-width="2"/>
  <text x="680" y="690" font-family="Arial" font-size="14" text-anchor="middle" font-weight="bold" fill="#000">Server 7 (New)</text>
  
  <!-- Firewall DB 3 -->
  <rect x="600" y="705" width="160" height="25" rx="5" fill="#fff2e8" stroke="#fa541c" stroke-width="2"/>
  <text x="680" y="722" font-family="Arial" font-size="12" text-anchor="middle" fill="#000">Firewall</text>
  
  <!-- MySQL Replica 2 -->
  <rect x="600" y="735" width="160" height="35" rx="5" fill="#f9f0ff" stroke="#722ed1" stroke-width="2"/>
  <text x="680" y="757" font-family="Arial" font-size="12" text-anchor="middle" fill="#000">MySQL (Replica)</text>
  
  <!-- Monitoring Client DB 3 -->
  <rect x="600" y="775" width="160" height="25" rx="5" fill="#f6ffed" stroke="#52c41a" stroke-width="2"/>
  <text x="680" y="792" font-family="Arial" font-size="12" text-anchor="middle" fill="#000">Monitoring</text>
  
  <!-- Database Replication Arrows -->
  <line x1="340" y1="752" x2="390" y2="752" stroke="#722ed1" stroke-width="2" stroke-dasharray="5,3"/>
  <polygon points="390,752 380,747 380,757" fill="#722ed1"/>
  <text x="365" y="742" font-family="Arial" font-size="12" text-anchor="middle" fill="#722ed1">Replication</text>
  
  <line x1="550" y1="752" x2="600" y2="752" stroke="#722ed1" stroke-width="2" stroke-dasharray="5,3"/>
  <polygon points="600,752 590,747 590,757" fill="#722ed1"/>
  <text x="575" y="742" font-family="Arial" font-size="12" text-anchor="middle" fill="#722ed1">Replication</text>
  
  <!-- Monitoring Arrows -->
  <line x1="230" y1="545" x2="790" y2="180" stroke="#52c41a" stroke-width="2" stroke-dasharray="5,3"/>
  <line x1="370" y1="545" x2="810" y2="180" stroke="#52c41a" stroke-width="2" stroke-dasharray="5,3"/>
  <line x1="580" y1="505" x2="830" y2="180" stroke="#52c41a" stroke-width="2" stroke-dasharray="5,3"/>
  <line x1="720" y1="505" x2="850" y2="180" stroke="#52c41a" stroke-width="2" stroke-dasharray="5,3"/>
  <line x1="260" y1="775" x2="810" y2="190" stroke="#52c41a" stroke-width="2" stroke-dasharray="5,3"/>
  <line x1="470" y1="775" x2="830" y2="190" stroke="#52c41a" stroke-width="2" stroke-dasharray="5,3"/>
  <line x1="680" y1="775" x2="850" y2="190" stroke="#52c41a" stroke-width="2" stroke-dasharray="5,3"/>
  
  <!-- Connection Arrows -->
  <line x1="170" y1="290" x2="190" y2="290" stroke="#000" stroke-width="2"/>
  <polygon points="190,290 180,285 180,295" fill="#000"/>
  
  <line x1="310" y1="290" x2="330" y2="290" stroke="#000" stroke-width="2"/>
  <polygon points="330,290 320,285 320,295" fill="#000"/>
  
  <line x1="410" y1="290" x2="430" y2="290" stroke="#000" stroke-width="2"/>
  <polygon points="430,290 420,285 420,295" fill="#000"/>
  
  <!-- Load Balancer to Web Servers -->
  <line x1="530" y1="360" x2="230" y2="440" stroke="#000" stroke-width="2"/>
  <polygon points="230,440 235,430 240,438" fill="#000"/>
  
  <line x1="530" y1="360" x2="370" y2="440" stroke="#000" stroke-width="2"/>
  <polygon points="370,440 360,430 365,438" fill="#000"/>
  
  <!-- Web Servers to App Servers -->
  <line x1="290" y1="510" x2="530" y2="510" stroke="#000" stroke-width="2"/>
  <polygon points="530,510 520,505 520,515" fill="#000"/>
  
  <line x1="290" y1="530" x2="670" y2="530" stroke="#000" stroke-width="2"/>
  <polygon points="670,530 660,525 660,535" fill="#000"/>
  
  <!-- App Servers to Database -->
  <line x1="580" y1="580" x2="260" y2="735" stroke="#000" stroke-width="2"/>
  <polygon points="260,735 265,725 270,733" fill="#000"/>
  
  <line x1="720" y1="580" x2="470" y2="735" stroke="#000" stroke-width="2"/>
  <polygon points="470,735 465,725 475,733" fill="#000"/>
  
  <line x1="720" y1="580" x2="680" y2="735" stroke="#000" stroke-width="2"/>
  <polygon points="680,735 675,725 685,733" fill="#000"/>
  
  <!-- SSL and HTTPS Labels -->
  <text x="180" y="270" font-family="Arial" font-size="12" fill="#000">HTTP</text>
  <text x="370" y="270" font-family="Arial" font-size="12" fill="#000">HTTPS</text>
  
  <!-- Key Benefits Box -->
  <rect x="820" y="400" width="170" height="430" rx="10" fill="#f0f5ff" stroke="#1890ff" stroke-width="2"/>
  <text x="905" y="425" font-family="Arial" font-size="16" font-weight="bold" text-anchor="middle" fill="#000">Key Benefits</text>
  
  <text x="830" y="455" font-family="Arial" font-size="14" font-weight="bold" fill="#000">1. No SPOF</text>
  <text x="840" y="475" font-family="Arial" font-size="12" fill="#000">• Redundant load</text>
  <text x="840" y="490" font-family="Arial" font-size="12" fill="#000">  balancers</text>
  <text x="840" y="505" font-family="Arial" font-size="12" fill="#000">• Multiple servers per</text>
  <text x="840" y="520" font-family="Arial" font-size="12" fill="#000">  component</text>
  
  <text x="830" y="550" font-family="Arial" font-size="14" font-weight="bold" fill="#000">2. Scalability</text>
  <text x="840" y="570" font-family="Arial" font-size="12" fill="#000">• Component-specific</text>
  <text x="840" y="585" font-family="Arial" font-size="12" fill="#000">  scaling</text>
  <text x="840" y="600" font-family="Arial" font-size="12" fill="#000">• Resource optimization</text>
  
  <text x="830" y="630" font-family="Arial" font-size="14" font-weight="bold" fill="#000">3. Maintainability</text>
  <text x="840" y="650" font-family="Arial" font-size="12" fill="#000">• Component isolation</text>
  <text x="840" y="665" font-family="Arial" font-size="12" fill="#000">• Targeted updates</text>
  <text x="840" y="680" font-family="Arial" font-size="12" fill="#000">• Specialized tuning</text>
  
  <text x="830" y="710" font-family="Arial" font-size="14" font-weight="bold" fill="#000">4. High Availability</text>
  <text x="840" y="730" font-family="Arial" font-size="12" fill="#000">• Clustered load</text>
  <text x="840" y="745" font-family="Arial" font-size="12" fill="#000">  balancers</text>
  <text x="840" y="760" font-family="Arial" font-size="12" fill="#000">• Multiple replicas</text>
  <text x="840" y="775" font-family="Arial" font-size="12" fill="#000">• Zero-downtime</text>
  <text x="840" y="790" font-family="Arial" font-size="12" fill="#000">  maintenance</text>
</svg>